<?xml version="1.0" encoding="UTF-8"?>
<svg id="Capa_1" xmlns="http://www.w3.org/2000/svg" version="1.1" viewBox="0 0 367.7 361.6">
  <!-- Generator: Adobe Illustrator 29.3.0, SVG Export Plug-In . SVG Version: 2.1.0 Build 146)  -->
  <defs>
    <style>
      .st0 {
        fill: white;
        fill-rule: evenodd;
      }
    </style>
  </defs>
  <path class="st0" d="M184,0C82.3,0,0,82.9,0,185.4s52.7,151.3,125.8,175.9c9.1,1.8,12.5-4,12.5-8.9s-.3-19-.3-34.4c-51.2,11-61.8-22.1-61.8-22.1-2.6-6.7-5.5-11.9-8.4-15.8l-5.1,22.9c-.5,1.6-2.1,2.6-3.8,2.4l-4.3-.7c-1.7-.3-2.9-1.7-2.9-3.4l2.2-33.8c-9.7-7.3-3.4-9.2.6-9.7l.4-5.9c-.5-.5-.9-1-1.3-1.6-1.9-2.6-2.9-5.6-3-8.8,0,0,0-.1,0-.2,0-.5.5-.8,1-.7l28.6,4.4s.1,0,.2,0c.5.1.7.6.5,1.1-1,3-2.9,5.6-5.5,7.5-.6.4-1.1.8-1.7,1.1l-1.7,7.7c9,5.7,13.6,14.1,13.6,14.1,16.4,28.2,43,20.3,53.6,15.4,1.5-12,6.4-20.3,11.6-24.9-40.8-4.3-83.8-20.3-83.8-91.5s7.3-36.8,18.9-49.7c-1.8-4.6-8.2-23.6,1.8-49.1,0,0,15.5-4.9,50.6,19,15-4.1,30.5-6.1,46-6.1,15.5,0,31.4,2.1,46,6.1,35-23.9,50.6-19,50.6-19,10.1,25.5,3.7,44.5,1.8,49.1,11.9,12.9,18.9,29.5,18.9,49.7,0,71.2-43,86.9-84.1,91.5,6.7,5.8,12.5,16.9,12.5,34.4,0,24.9-.3,44.8-.3,51s3.3,10.8,12.5,8.9c73.1-24.6,125.8-93.9,125.8-175.9C368,82.9,285.5,0,184,0ZM71,226.4c6.2,2.1,10.3,7.8,10.5,14.4,0,.5-.4.9-.9.9,0,0,0,0-.1,0l-28.6-4.4c-.5,0-.8-.5-.7-1,0,0,0,0,0-.2,2.8-8.1,11.6-12.4,19.7-9.7Z"/>
</svg>