<?xml version="1.0" encoding="UTF-8"?>
<svg xmlns="http://www.w3.org/2000/svg" version="1.1" viewBox="0 0 176.5 176.5">
  <defs>
    <style>
      .cls-1 {
        fill: none;
        stroke: #fff;
        stroke-miterlimit: 10;
      }
    </style>
  </defs>
  <!-- Generator: Adobe Illustrator 28.6.0, SVG Export Plug-In . SVG Version: 1.2.0 Build 709)  -->
  <g>
    <g id="Capa_1">
      <g>
        <path class="cls-1" d="M134.2,44.2c3.2,7.6,3.5,15.6,1.5,22.9-9.1-5.1-20.4-6-30.8-1.7l-30.7,12.9L13.1,56.8l74.9-31.5c17.9-7.5,38.6.9,46.1,18.8Z"/>
        <path class="cls-1" d="M151,84.2c3.8,9,3.5,18.6.1,27-3.4,8.3-10,15.4-19,19.2l-74.9,31.5,27.4-58.7,30.7-12.9c9-3.8,15.6-10.8,19-19.2.5-1.3,1-2.6,1.4-4,6.6,3.7,12.2,9.6,15.3,17.1Z"/>
      </g>
    </g>
  </g>
</svg>