<?xml version="1.0" encoding="UTF-8"?>
<svg xmlns="http://www.w3.org/2000/svg" version="1.1" viewBox="0 0 265.2 265.2">
  <defs>
    <style>
      .cls-1 {
        fill: #cd2b41;
      }

      .cls-2 {
        fill: #34132f;
      }
    </style>
  </defs>
  <!-- Generator: Adobe Illustrator 28.6.0, SVG Export Plug-In . SVG Version: 1.2.0 Build 709)  -->
  <g>
    <g id="Capa_1">
      <g>
        <path class="cls-2" d="M264,82.4c0,18.9-6.6,36.3-17.5,50.2-15-19.1-38.3-31.4-64.5-31.4h-68.3c-5.9,0-11.7-2.2-16.1-6.2L2.9,9.2C-.6,5.9,1.6,0,6.5,0h174.2c45.3,0,83.6,37.1,83.3,82.4Z"/>
        <path class="cls-1" d="M264,183.2c0,22.6-9.2,43.2-24,58-14.8,14.8-35.3,24-58,24H6.5c-4.8,0-7.1-5.9-3.5-9.2l94.8-85.9c4.4-4,10.1-6.2,16.1-6.2h68.3c22.6,0,43.1-9.2,58-24,2.3-2.3,4.5-4.8,6.6-7.4,10.9,13.9,17.5,31.5,17.5,50.6Z"/>
      </g>
    </g>
  </g>
</svg>