<?xml version="1.0" encoding="UTF-8"?>
<svg xmlns="http://www.w3.org/2000/svg" version="1.1" viewBox="0 0 340.9 70.2">
	<defs>
		<style>
			.cls-1 {
			fill: white;
			}

			.cls-2 {
			fill: #cd2b41;
			}

			.cls-3 {
			fill: #34132f;
			}
		</style>
	</defs>
	<g>
		<g>
			<g>
				<path id="bup" class="cls-3"
					  d="M69.6,21.8c0,5-1.8,9.6-4.6,13.3-4-5.1-10.1-8.3-17.1-8.3h-18.1c-1.6,0-3.1-.6-4.3-1.6L.5,2.4C-.5,1.6.1,0,1.4,0h46.1c12,0,22.1,9.8,22.1,21.8Z"/>
				<path id="bud" class="cls-2"
					  d="M69.6,48.5c0,6-2.4,11.4-6.4,15.3-3.9,3.9-9.4,6.4-15.4,6.4H1.4c-1.3,0-1.9-1.6-.9-2.4l25.1-22.7c1.2-1.1,2.7-1.6,4.3-1.6h18.1c6,0,11.4-2.4,15.4-6.4.6-.6,1.2-1.3,1.7-2,2.9,3.7,4.6,8.3,4.6,13.4Z"/>
			</g>
			<path class="cls-1"
				  d="M108.1,24c8.9,0,15.6,6.6,15.6,16.9s-6.8,17.1-15.6,17.1-10.3-3-12.3-6.6v3.8c0,1.2-1,2.3-2.3,2.3h-3.2V13h5.5v17.6c2.1-3.7,6.5-6.7,12.3-6.7ZM107,28.8c-5.9,0-11.2,4.6-11.2,12.2s5.2,12.2,11.2,12.2,11.2-4.6,11.2-12.3-5.1-12.1-11.2-12.1Z"/>
			<path class="cls-1"
				  d="M143.6,58c-9.3,0-16.4-6.6-16.4-17s7.3-16.9,16.6-16.9,16.6,6.5,16.6,16.9-7.5,17-16.9,17ZM143.6,53.2c5.7,0,11.3-3.9,11.3-12.2s-5.5-12.2-11.1-12.2-11,3.9-11,12.2,5.1,12.2,10.8,12.2Z"/>
			<path class="cls-1"
				  d="M191.4,57.4h-3.2v-4.9c-2.1,3.4-6.1,5.3-10.5,5.3-7.6,0-13.5-4.7-13.5-14.1v-19.3h5.4v18.5c0,6.7,3.7,10.1,9.2,10.1s9.4-3.5,9.4-10.6v-18.1h5.5v30.6c0,1.2-1,2.3-2.3,2.3Z"/>
			<path class="cls-1"
				  d="M223.6,38.8c0-6.7-3.7-10.1-9.2-10.1s-9.4,3.5-9.4,10.6v15.9c0,1.2-1,2.3-2.3,2.3h-3.2V24.6h5.5v4.7c2.2-3.4,6.1-5.3,10.6-5.3,7.6,0,13.4,4.7,13.4,14.1v17.1c0,1.2-1,2.3-2.3,2.3h-3.1v-18.6Z"/>
			<path class="cls-1"
				  d="M254.2,47.4v10h-5.1c-8.6,0-12.9-4.3-12.9-12.8v-11.1h-4.1v-9.8h4.1v-5.5c0-1.6,1.1-3,2.6-3.3l9.2-2.2v11h6.1v9.8h-6.1v11.3c0,.9.2,1.6.6,2,.4.4,1.1.6,2.1.6h3.4Z"/>
			<path class="cls-1"
				  d="M276.2,25.2c1.9-1.1,3.9-1.7,6.1-1.7v12.5h-3.3c-2.6,0-4.5.5-5.7,1.5-1.2,1-1.9,2.7-1.9,5.2v13c0,.9-.8,1.7-1.7,1.7h-10.1V23.8h11.8v5.9c1.3-1.9,2.9-3.4,4.8-4.6Z"/>
			<path class="cls-1" d="M298.2,23.8v32c0,.9-.8,1.7-1.7,1.7h-10.1V23.8h11.8Z"/>
			<path class="cls-1"
				  d="M320.6,24.7c1.7-.9,3.7-1.4,5.9-1.4s5.1.7,7.3,2.1c2.2,1.4,3.9,3.4,5.2,6,1.3,2.6,1.9,5.6,1.9,9.1s-.6,6.5-1.9,9.2c-1.3,2.6-3,4.6-5.2,6-2.2,1.4-4.6,2.1-7.3,2.1s-4.3-.5-5.9-1.4c-1.7-.9-3-2.2-3.9-3.7v11.8c0,1.6-1.1,3-2.6,3.3l-9.1,2.2V23.8h11.8v4.7c.9-1.6,2.2-2.8,3.9-3.7ZM327.2,35.4c-1.1-1.1-2.5-1.8-4.1-1.8s-2.9.4-4,1.2c-1.6,1.3-2.4,3.2-2.4,5.7s1,5,3.1,6.2,1.8.8,2.8.8c1.8,0,3.4-.6,4.6-1.9,1.2-1.3,1.8-3,1.8-5.1s-.6-3.9-1.8-5.1Z"/>
			<circle class="cls-2" cx="292.3" cy="13" r="6.9"/>
		</g>
	</g>
</svg>